Coordinates
version=1
nRows=125
nColumns=11
inDegrees=no

Units are S.I. units (second, meters, Newtons, ...)
If the header above contains a line with 'inDegrees', this indicates whether rotational values are in degrees (yes) or radians (no).

endheader
time	pelvis_tilt	pelvis_tx	pelvis_ty	hip_flexion_r	knee_angle_r	ankle_angle_r	hip_flexion_l	knee_angle_l	ankle_angle_l	lumbar_extension
0.01	-0.0206904	0.00868266	1.02012	0.00148112	-0.0831488	0.154158	-0.0362895	0.038071	0.0772244	0
0.02	-0.0197392	0.00882654	1.02027	0.0016183	-0.0856556	0.154394	-0.0390749	0.0411597	0.0768544	0
0.03	-0.0192626	0.00891799	1.02035	0.00126846	-0.0858119	0.15315	-0.0405574	0.042681	0.0762881	0
0.04	-0.019204	0.00896418	1.0203	0.0012523	-0.085722	0.154128	-0.0412952	0.0439186	0.0767179	0
0.05	-0.0193578	0.00905292	1.02013	0.00151757	-0.085761	0.155895	-0.0410398	0.0437021	0.078781	0
0.06	-0.0189954	0.00940388	1.0201	0.000667079	-0.0856267	0.156391	-0.041969	0.0439026	0.0777506	0
0.07	-0.0185227	0.0098218	1.02015	-0.000121412	-0.0863987	0.156693	-0.0423665	0.0427683	0.077276	0
0.08	-0.0180562	0.0102192	1.02016	-0.00127427	-0.0861133	0.155784	-0.0424936	0.0412191	0.0780574	0
0.09	-0.0168653	0.0109249	1.02023	-0.00405741	-0.0848761	0.155936	-0.043932	0.0401285	0.0794106	0
0.1	-0.0155805	0.0115716	1.02033	-0.00622629	-0.0847263	0.158283	-0.0458424	0.039681	0.0801585	0
0.11	-0.0145172	0.0119572	1.0204	-0.00757853	-0.0850242	0.15962	-0.0470503	0.0388038	0.0814955	0
0.12	-0.0143422	0.011904	1.02049	-0.00715366	-0.0861994	0.157633	-0.045974	0.0365462	0.0830427	0
0.13	-0.0144806	0.0119954	1.02055	-0.00693136	-0.0866751	0.15689	-0.0442836	0.0335936	0.0853004	0
0.14	-0.0144233	0.0121151	1.02055	-0.00729468	-0.0864034	0.157284	-0.0434575	0.0317248	0.087498	0
0.15	-0.0145297	0.0120189	1.0205	-0.00678907	-0.0869203	0.158199	-0.0421853	0.0299103	0.0869965	0
0.16	-0.0148441	0.0119514	1.02045	-0.00593908	-0.087735	0.159507	-0.0410582	0.0286378	0.0863969	0
0.17	-0.014968	0.012133	1.02041	-0.00611974	-0.0876901	0.159935	-0.0408776	0.0280373	0.0860417	0
0.18	-0.0145345	0.0123964	1.02045	-0.00720317	-0.0869589	0.159538	-0.0424588	0.0294318	0.0857754	0
0.19	-0.0147359	0.0124673	1.02034	-0.00707881	-0.0866042	0.158595	-0.0439738	0.0323194	0.0857464	0
0.2	-0.0152417	0.0123865	1.02021	-0.00615535	-0.0869575	0.159949	-0.0436207	0.0328927	0.0869428	0
0.21	-0.0156255	0.012371	1.02017	-0.00510605	-0.088083	0.160483	-0.0429542	0.0326996	0.0862817	0
0.22	-0.0154784	0.0125854	1.02028	-0.00514921	-0.0890576	0.160306	-0.0432093	0.0324526	0.085583	0
0.23	-0.0154482	0.0128153	1.02036	-0.005506	-0.0892037	0.161352	-0.0438386	0.0327919	0.0851032	0
0.24	-0.0153512	0.0130924	1.02043	-0.00600543	-0.0892587	0.162506	-0.0438686	0.0313978	0.0870047	0
0.25	-0.0155286	0.0132374	1.02047	-0.00535023	-0.0908818	0.165551	-0.0418637	0.0266273	0.0903544	0
0.26	-0.0156679	0.0134291	1.02045	-0.00504558	-0.0926445	0.167341	-0.03859	0.0190993	0.0955197	0
0.27	-0.0159084	0.0134796	1.02032	-0.00474164	-0.0945638	0.167966	-0.0378796	0.0167612	0.0984705	0
0.28	-0.016415	0.013393	1.0203	-0.00407639	-0.0962144	0.170142	-0.0381688	0.0170102	0.0993555	0
0.29	-0.017267	0.0132373	1.02036	-0.00270635	-0.0984523	0.171216	-0.0381301	0.0168231	0.0986069	0
0.3	-0.0181033	0.013002	1.02042	-0.00161742	-0.100342	0.171681	-0.0363126	0.013108	0.100195	0
0.31	-0.0187124	0.0128384	1.02045	-0.00166424	-0.100571	0.17126	-0.0359049	0.0117876	0.102343	0
0.32	-0.0192101	0.0128268	1.02038	-0.00174429	-0.100911	0.168752	-0.0373116	0.0144802	0.104043	0
0.33	-0.0191695	0.0131681	1.02034	-0.00311233	-0.100621	0.16773	-0.0383596	0.0146291	0.103421	0
0.34	-0.0185216	0.0137602	1.02043	-0.00627465	-0.0990984	0.168867	-0.0398141	0.0126409	0.103539	0
0.35	-0.0178847	0.0142902	1.02058	-0.00983644	-0.0974647	0.170751	-0.0413364	0.0105278	0.105539	0
0.36	-0.0176902	0.0146209	1.02058	-0.0123485	-0.0965119	0.17233	-0.0427715	0.00967879	0.109322	0
0.37	-0.0176514	0.0149613	1.02045	-0.0141458	-0.0959985	0.175544	-0.0448865	0.0109768	0.113097	0
0.38	-0.0177133	0.0152096	1.0204	-0.015641	-0.0957024	0.17665	-0.046656	0.0123089	0.11293	0
0.39	-0.0179823	0.0152343	1.0205	-0.0168641	-0.0954265	0.174644	-0.0475394	0.0122048	0.11205	0
0.4	-0.0184104	0.0151665	1.02056	-0.0181914	-0.0943947	0.174904	-0.0488564	0.0132975	0.113252	0
0.41	-0.0183998	0.0153037	1.02058	-0.0206567	-0.0923955	0.173596	-0.051374	0.0156023	0.114685	0
0.42	-0.0184217	0.0155038	1.02059	-0.0225078	-0.0912736	0.173278	-0.054106	0.0185194	0.111375	0
0.43	-0.0188904	0.0154785	1.02056	-0.0224895	-0.0926757	0.175385	-0.0568105	0.0221537	0.109162	0
0.44	-0.0189827	0.015422	1.02056	-0.022747	-0.0946714	0.178635	-0.0581138	0.0216964	0.111386	0
0.45	-0.0185481	0.0153939	1.02066	-0.0237811	-0.0965812	0.18126	-0.0591626	0.0203113	0.115085	0
0.46	-0.0181618	0.0154657	1.02079	-0.024729	-0.0987506	0.183033	-0.0608613	0.0203232	0.11705	0
0.47	-0.0180319	0.0157389	1.0208	-0.0257403	-0.1003	0.184736	-0.0620355	0.0192057	0.118045	0
0.48	-0.018254	0.0159587	1.02078	-0.0259603	-0.10213	0.187675	-0.0620656	0.0164763	0.11962	0
0.49	-0.0187995	0.0159441	1.02083	-0.0245058	-0.106492	0.189514	-0.0614872	0.0137084	0.121657	0
0.5	-0.0195416	0.0158376	1.02087	-0.0217655	-0.112807	0.191521	-0.0601289	0.0101356	0.122993	0
0.51	-0.0202651	0.0157554	1.02072	-0.0181627	-0.120363	0.196446	-0.0593803	0.00708107	0.126934	0
0.52	-0.0212959	0.0154466	1.02045	-0.0143646	-0.127595	0.204145	-0.0592566	0.00627459	0.130455	0
0.53	-0.0218762	0.015233	1.02033	-0.0111523	-0.134955	0.210728	-0.0597266	0.0064893	0.131186	0
0.54	-0.020384	0.0159093	1.02049	-0.0120583	-0.140621	0.214379	-0.0635535	0.00683916	0.133292	0
0.55	0.00103432	0.020635	1.02194	-0.0317755	-0.159566	0.218358	-0.0879976	-0.00315753	0.136603	0
0.56	-0.0220154	0.0162294	1.02045	-0.00287421	-0.160594	0.223288	-0.0671488	0.00982675	0.135639	0
0.57	-0.0234632	0.0156667	1.02034	0.00476071	-0.173959	0.231367	-0.0665236	0.00928799	0.135811	0
0.58	-0.0258391	0.0149679	1.02013	0.0145187	-0.189667	0.235929	-0.064242	0.00871967	0.136319	0
0.59	-0.0288686	0.013907	1.01982	0.0266752	-0.207541	0.239717	-0.0603718	0.00666587	0.13917	0
0.6	-0.0308739	0.0132394	1.01956	0.0385433	-0.227867	0.24495	-0.0588392	0.00551374	0.143689	0
0.61	-0.0321424	0.0130112	1.0193	0.0492295	-0.247899	0.249404	-0.0596586	0.00684743	0.146354	0
0.62	-0.0333719	0.0127648	1.019	0.0604642	-0.268705	0.253769	-0.0616837	0.0105447	0.146613	0
0.63	-0.0344038	0.0122157	1.01872	0.0723361	-0.290448	0.259662	-0.062419	0.0115944	0.148241	0
0.64	-0.0329848	0.0128888	1.01852	0.0817125	-0.313036	0.265761	-0.0672699	0.0147239	0.148859	0
0.65	-0.0360082	0.0117192	1.01816	0.0964794	-0.336967	0.267359	-0.0674464	0.0176915	0.14884	0
0.66	-0.0379901	0.0107658	1.01776	0.112903	-0.363734	0.266853	-0.0652234	0.0152616	0.151651	0
0.67	-0.0392382	0.0100577	1.01752	0.128487	-0.390793	0.263528	-0.0656135	0.0162022	0.152944	0
0.68	-0.041189	0.00921239	1.01727	0.146297	-0.420038	0.259426	-0.0673578	0.0218707	0.152815	0
0.69	-0.043166	0.00829289	1.01711	0.164001	-0.44863	0.256807	-0.0667545	0.0226192	0.155894	0
0.7	-0.0441539	0.00747546	1.01713	0.181847	-0.479845	0.253647	-0.0656708	0.0200617	0.157388	0
0.71	-0.0454506	0.00665703	1.0171	0.199345	-0.509559	0.248728	-0.0677241	0.0242776	0.155142	0
0.72	-0.0477705	0.00568545	1.01705	0.217125	-0.536565	0.244803	-0.0689593	0.0294419	0.153511	0
0.73	-0.0485325	0.00502197	1.01705	0.231933	-0.560561	0.242327	-0.0696105	0.0298442	0.153754	0
0.74	-0.048309	0.00444352	1.01707	0.244653	-0.58159	0.237761	-0.0703526	0.0281445	0.155457	0
0.75	-0.0494311	0.00333772	1.01709	0.258689	-0.599146	0.239027	-0.0683996	0.0250195	0.159148	0
0.76	-0.0519331	0.00214602	1.0171	0.273305	-0.611778	0.245176	-0.066175	0.0243575	0.160273	0
0.77	-0.056273	0.000269419	1.01688	0.29065	-0.621665	0.250486	-0.0600997	0.0218798	0.159668	0
0.78	-0.0751066	-0.00421014	1.01561	0.326996	-0.627231	0.253993	-0.0343318	0.0202465	0.155421	0
0.79	-0.0737024	-0.00425979	1.01599	0.329364	-0.620443	0.254524	-0.0393483	0.0222941	0.159663	0
0.8	-0.0550962	-0.00116433	1.0177	0.304922	-0.605311	0.253752	-0.0663886	0.0212477	0.168794	0
0.81	-0.0565559	-0.00188554	1.01785	0.309553	-0.590685	0.252727	-0.0651995	0.0188319	0.170865	0
0.82	-0.0589218	-0.00264805	1.01782	0.314923	-0.574218	0.249313	-0.0633199	0.0174555	0.170791	0
0.83	-0.0612262	-0.0036167	1.01776	0.318845	-0.554354	0.244396	-0.0622787	0.0177114	0.169903	0
0.84	-0.0638831	-0.00498841	1.01765	0.322026	-0.530241	0.237952	-0.0614059	0.0193725	0.169792	0
0.85	-0.0666951	-0.00668728	1.01748	0.325627	-0.504661	0.231991	-0.0580349	0.0175445	0.171865	0
0.86	-0.0690958	-0.00814612	1.01726	0.328037	-0.477372	0.221698	-0.0551705	0.0150389	0.174079	0
0.87	-0.0714877	-0.00913643	1.01706	0.328851	-0.447143	0.207533	-0.0544554	0.0157508	0.173111	0
0.88	-0.0729158	-0.00958326	1.01703	0.326348	-0.413948	0.193478	-0.054734	0.015151	0.173652	0
0.89	-0.0735924	-0.00982064	1.01703	0.322568	-0.380271	0.181123	-0.0567859	0.0158329	0.175349	0
0.9	-0.0764635	-0.0108892	1.0166	0.323523	-0.348729	0.162876	-0.0553168	0.0159177	0.177458	0
0.91	-0.0806442	-0.0125496	1.01594	0.326128	-0.316553	0.144571	-0.0515004	0.0158476	0.179582	0
0.92	-0.0828104	-0.0133535	1.01545	0.323507	-0.281568	0.127868	-0.0534682	0.0203538	0.17982	0
0.93	-0.0841459	-0.0137495	1.01517	0.319769	-0.248147	0.111193	-0.05658	0.0247638	0.179727	0
0.94	-0.085853	-0.0145327	1.01488	0.318046	-0.2183	0.0925144	-0.0578873	0.0276034	0.181896	0
0.95	-0.0882859	-0.0156729	1.0144	0.318239	-0.190496	0.0746537	-0.0572556	0.0279287	0.185057	0
0.96	-0.0903261	-0.0166107	1.01388	0.317794	-0.163511	0.0620199	-0.057899	0.0294705	0.186175	0
0.97	-0.0906005	-0.0165562	1.01348	0.315251	-0.139475	0.0551459	-0.0631837	0.0359149	0.186383	0
0.98	-0.0911312	-0.0169445	1.0131	0.313021	-0.118939	0.0500315	-0.0675728	0.0395292	0.188895	0
0.99	-0.0919676	-0.0172705	1.01278	0.311367	-0.0990107	0.0436956	-0.0687691	0.0390774	0.192062	0
1	-0.0942228	-0.0183381	1.01242	0.311737	-0.0803142	0.0366448	-0.0651616	0.0335159	0.196215	0
1.01	-0.0970164	-0.0196254	1.01192	0.313429	-0.0656304	0.0307722	-0.0603012	0.0271063	0.20054	0
1.02	-0.098265	-0.0202125	1.01152	0.312922	-0.0550079	0.0268324	-0.0623319	0.0286361	0.20241	0
1.03	-0.0989237	-0.0206008	1.01123	0.311211	-0.0457852	0.0235699	-0.0671348	0.0340533	0.202296	0
1.04	-0.0995967	-0.0212297	1.01096	0.309647	-0.0386308	0.0222834	-0.0703562	0.0373546	0.202538	0
1.05	-0.100325	-0.0220528	1.01069	0.309541	-0.0367904	0.0258271	-0.0733753	0.0409006	0.203146	0
1.06	-0.0998215	-0.0221584	1.01051	0.30828	-0.039697	0.0329427	-0.07681	0.0405702	0.207723	0
1.07	-0.100386	-0.022423	1.01018	0.308576	-0.0452857	0.0355179	-0.07744	0.0374084	0.213062	0
1.08	-0.100798	-0.022564	1.00986	0.306638	-0.0497497	0.0341739	-0.080189	0.0377143	0.216273	0
1.09	-0.100502	-0.0225101	1.00956	0.303034	-0.0544421	0.0352067	-0.0862036	0.0424068	0.218313	0
1.1	-0.0988103	-0.0219729	1.00946	0.297703	-0.0612153	0.0348618	-0.0922023	0.0425947	0.222799	0
1.11	-0.097159	-0.0216621	1.00938	0.292527	-0.0661944	0.0313639	-0.0962132	0.0396185	0.226952	0
1.12	-0.0970466	-0.0220131	1.00909	0.289967	-0.0677776	0.0282562	-0.0999016	0.0402625	0.229282	0
1.13	-0.0966663	-0.022162	1.00908	0.285487	-0.0640301	0.0252177	-0.103387	0.0395368	0.230528	0
1.14	-0.095255	-0.0218248	1.00919	0.278122	-0.0569991	0.0210212	-0.107765	0.0380982	0.231364	0
1.15	-0.0951785	-0.021541	1.00903	0.272231	-0.0502243	0.0132605	-0.110888	0.0372759	0.232824	0
1.16	-0.0959287	-0.0215857	1.00866	0.268366	-0.0465542	0.00369902	-0.110564	0.0321816	0.237894	0
1.17	-0.0943637	-0.0209668	1.00847	0.262347	-0.0455956	-0.00701652	-0.115328	0.0301824	0.242726	0
1.18	-0.0911368	-0.0197536	1.00847	0.254448	-0.044389	-0.0161791	-0.124109	0.0314346	0.245499	0
1.19	-0.08814	-0.0187766	1.00846	0.246929	-0.0421611	-0.0204374	-0.131625	0.0308848	0.247653	0
1.2	-0.0864879	-0.0182948	1.00828	0.241224	-0.0395598	-0.0277507	-0.134958	0.0264241	0.252392	0
1.21	-0.085064	-0.0178735	1.00811	0.236575	-0.0383222	-0.0330477	-0.137148	0.0198884	0.258197	0
1.22	-0.0831329	-0.0171599	1.0081	0.232397	-0.0402872	-0.0355936	-0.139706	0.0124215	0.264905	0
1.23	-0.0805419	-0.0161066	1.00815	0.227373	-0.0428815	-0.0345228	-0.143471	0.00537107	0.270986	0
1.24	-0.0767625	-0.0148427	1.0084	0.220391	-0.0448305	-0.0310337	-0.149254	-0.00106418	0.27817	0
1.25	-0.0739705	-0.0140708	1.00863	0.215012	-0.0466012	-0.0253172	-0.151452	-0.0109583	0.283749	0
